# xmcd
#
# Track frame offsets: 
#        150
#        15840
#        31360
#        48130
#        61711
#        75469
#        93557
#        112177
#        131046
#        149736
#        165368
#        180527
#        196517
#        210767
#        228693
#        245778
#        264203
#        284405
#
# Disc length: 4021 seconds
#
# Revision: 0
# Processed by: cddbd v1.5.2PL0 Copyright (c) Steve Scherf et al.
# Submitted via: ExactAudioCopyFreeDBPlugin 1.0
#
DISCID=ec0fb312
DTITLE=Various Artist -  Hit Country - Duets
DYEAR=2015
DGENRE=Country
TTITLE0=Lee Kernaghan feat. the Wolfe Brothers - Lights on the Hill
TTITLE1=Florida Georgia Line and Nelly - Cruise
TTITLE2=Blake Shelton feat. Trace Adkins - Hillbilly Bone
TTITLE3=McAlister Kemp feat. Doc Walker - After Midnight
TTITLE4=Adam Harvey feat. Guy Sebastian - Stuck in the Middle
TTITLE5=James Blundell and James Reyne - Way Out West
TTITLE6=Paul Costa feat. Amber Lawrence - Chained to the Wheel
TTITLE7=Dean Brody feat. Lindi Ortega - Bounty
TTITLE8=Dolly Parton and Kenny Rogers - Islands in the Stream
TTITLE9=Craig Campbell feat. Troy Cassar-daley - The Sunshine Club
TTITLE10=Jenny Queen feat. Brooke McClymont - Austin
TTITLE11=Adam Brand feat. Jasmine Rae - Quit This Time
TTITLE12=Kasey Chambers feat. Kevin Bennett - Love Like A Hurricane
TTITLE13=Emerson Drive feat. Doc Walker - Let It Roll
TTITLE14=Beccy Cole feat. Kasey Chambers - Millionaires
TTITLE15=Courtney Conway feat. Sam Hawksley - Hard to Forget
TTITLE16=Clint Black with Lisa Hartman-Black - When I Said I Do
TTITLE17=K.D. Lang (Duet with Roy Orbison) - Crying
EXTD=
EXTT0=
EXTT1=
EXTT2=
EXTT3=
EXTT4=
EXTT5=
EXTT6=
EXTT7=
EXTT8=
EXTT9=
EXTT10=
EXTT11=
EXTT12=
EXTT13=
EXTT14=
EXTT15=
EXTT16=
EXTT17=
PLAYORDER=
